<svg xmlns="http://www.w3.org/2000/svg" xmlns:xlink="http://www.w3.org/1999/xlink" preserveAspectRatio="xMidYMid" width="42" height="40" viewBox="0 0 42 40">
  <defs>
    <style>
      .cls-1 {
        fill: #000;
        fill-rule: evenodd;
      }
    </style>
  </defs>
  <path d="M-0.000,22.743 L-0.000,10.873 L42.000,10.873 L42.000,22.743 L-0.000,22.743 ZM8.375,12.394 L3.055,21.222 L7.716,21.222 L13.036,12.394 L8.375,12.394 ZM20.955,12.394 L15.634,21.222 L20.696,21.222 L26.017,12.394 L20.955,12.394 ZM33.936,12.394 L28.615,21.222 L33.477,21.222 L38.797,12.394 L33.936,12.394 ZM37.489,8.180 L35.635,8.180 L35.635,10.025 L32.026,10.025 L32.026,8.180 L30.272,8.180 C28.750,8.180 27.515,6.951 27.515,5.436 L27.515,2.743 C27.515,1.228 28.750,-0.000 30.272,-0.000 L37.489,-0.000 C39.012,-0.000 40.246,1.228 40.246,2.743 L40.246,5.436 C40.246,6.951 39.012,8.180 37.489,8.180 ZM38.492,2.843 C38.492,2.292 38.043,1.845 37.489,1.845 L30.272,1.845 C29.718,1.845 29.270,2.292 29.270,2.843 L29.270,5.436 C29.270,5.987 29.718,6.434 30.272,6.434 L37.489,6.434 C38.043,6.434 38.492,5.987 38.492,5.436 L38.492,2.843 ZM11.978,8.180 L10.124,8.180 L10.124,10.025 L6.515,10.025 L6.515,8.180 L4.761,8.180 C3.239,8.180 2.005,6.951 2.005,5.436 L2.005,2.743 C2.005,1.228 3.239,-0.000 4.761,-0.000 L11.978,-0.000 C13.501,-0.000 14.735,1.228 14.735,2.743 L14.735,5.436 C14.735,6.951 13.501,8.180 11.978,8.180 ZM12.981,2.843 C12.981,2.292 12.532,1.845 11.978,1.845 L4.761,1.845 C4.208,1.845 3.759,2.292 3.759,2.843 L3.759,5.436 C3.759,5.987 4.208,6.434 4.761,6.434 L11.978,6.434 C12.532,6.434 12.981,5.987 12.981,5.436 L12.981,2.843 ZM10.926,30.923 L31.224,30.923 L31.224,23.541 L36.537,23.541 L36.537,40.000 L31.224,40.000 L31.224,36.309 L10.926,36.309 L10.926,40.000 L5.613,40.000 L5.613,23.541 L10.926,23.541 L10.926,30.923 Z" class="cls-1"/>
</svg>
