<svg xmlns="http://www.w3.org/2000/svg" xmlns:xlink="http://www.w3.org/1999/xlink" preserveAspectRatio="xMidYMid" width="42" height="40" viewBox="0 0 42 40">
  <defs>
    <style>
      .cls-1 {
        fill: #000;
        fill-rule: evenodd;
      }
    </style>
  </defs>
  <path d="M38.885,17.901 L33.546,17.901 L23.846,8.221 L23.979,2.961 L26.960,0.044 L32.211,-0.000 L41.822,9.635 L42.000,14.807 L38.885,17.901 ZM29.907,16.742 L27.222,19.410 L22.290,14.532 L24.985,11.855 L29.907,16.742 ZM29.096,24.195 C29.868,23.954 30.691,23.823 31.543,23.823 C36.041,23.823 39.686,27.445 39.686,31.912 C39.686,33.256 39.356,34.524 38.771,35.640 C38.842,35.693 34.881,30.188 34.881,30.188 L30.298,30.320 L28.607,34.342 C28.607,34.342 32.281,40.025 32.282,39.967 C32.039,39.989 31.792,40.000 31.543,40.000 C27.046,40.000 23.401,36.379 23.401,31.912 C23.401,30.845 23.609,29.826 23.987,28.894 L11.082,16.075 C10.170,16.426 9.179,16.619 8.143,16.619 C3.646,16.619 0.001,12.998 0.001,8.531 C0.001,7.193 0.327,5.932 0.905,4.821 C1.706,5.995 4.801,10.608 4.801,10.608 L9.340,10.431 L11.075,6.099 C11.075,6.099 8.071,1.906 7.038,0.516 C7.400,0.467 7.768,0.442 8.143,0.442 C12.640,0.442 16.286,4.063 16.286,8.531 C16.286,9.416 16.142,10.268 15.877,11.066 L29.096,24.195 ZM19.166,27.411 L9.568,36.945 L4.647,32.057 L14.310,22.459 L19.166,27.411 Z" class="cls-1"/>
</svg>
