<svg xmlns="http://www.w3.org/2000/svg" xmlns:xlink="http://www.w3.org/1999/xlink" preserveAspectRatio="xMidYMid" width="31" height="40" viewBox="0 0 31 40">
  <defs>
    <style>
      .cls-1 {
        fill: #000;
        fill-rule: evenodd;
      }
    </style>
  </defs>
  <path d="M30.995,40.000 L15.501,40.000 L0.005,40.000 C-0.037,36.515 0.178,30.505 2.023,28.374 C2.780,27.500 3.510,26.172 8.621,26.585 C9.593,25.734 10.291,24.788 10.618,24.453 C11.178,25.563 13.149,26.385 15.501,26.396 L15.501,26.383 C17.854,26.373 19.825,25.549 20.384,24.438 C20.711,24.774 21.409,25.720 22.381,26.572 C27.491,26.158 28.220,27.488 28.977,28.363 C30.822,30.496 31.037,36.512 30.995,40.000 ZM23.666,13.475 C24.203,13.906 24.548,14.569 24.548,15.312 L24.548,15.736 C24.548,16.952 23.627,17.952 22.444,18.078 C21.815,21.510 19.523,24.829 15.454,24.829 C11.359,24.829 8.976,21.612 8.450,18.015 C7.438,17.751 6.691,16.831 6.691,15.736 L6.691,15.312 C6.691,14.569 7.035,13.906 7.573,13.475 L23.666,13.475 ZM23.434,12.014 L7.696,12.014 L7.562,12.014 L5.984,12.014 L5.984,9.140 L7.292,9.140 C8.074,6.152 9.842,4.008 12.392,3.057 L12.392,9.093 C12.392,10.004 13.130,10.742 14.041,10.742 L17.245,10.742 C18.155,10.742 18.894,10.004 18.894,9.093 L18.894,3.009 C21.493,3.924 22.917,6.058 23.837,9.140 L25.302,9.140 L25.302,12.014 L24.524,12.014 L23.434,12.014 ZM17.292,9.753 L13.852,9.753 C13.462,9.753 13.146,9.436 13.146,9.046 L13.146,0.707 C13.146,0.316 13.462,-0.000 13.852,-0.000 L17.292,-0.000 C17.682,-0.000 17.999,0.316 17.999,0.707 L17.999,9.046 C17.999,9.436 17.682,9.753 17.292,9.753 Z" class="cls-1"/>
</svg>
