<svg xmlns="http://www.w3.org/2000/svg" xmlns:xlink="http://www.w3.org/1999/xlink" preserveAspectRatio="xMidYMid" width="46" height="40" viewBox="0 0 46 40">
  <defs>
    <style>
      .cls-1 {
        fill: #000;
        fill-rule: evenodd;
      }
    </style>
  </defs>
  <path d="M43.019,40.000 L39.996,35.651 L36.819,35.600 L33.468,40.000 L24.899,40.000 L31.871,27.649 L33.798,28.469 L37.027,23.699 L39.683,24.468 L46.001,40.000 L43.019,40.000 ZM21.091,33.291 L22.706,30.419 L13.957,25.545 L16.040,31.906 L14.555,40.000 L11.227,40.000 L12.603,32.983 L10.311,26.828 L7.812,26.879 L6.926,32.676 L4.366,40.000 L0.922,40.000 L3.333,32.778 L3.802,23.340 L-0.000,22.314 L0.104,16.107 L4.843,11.952 L7.135,12.157 L8.948,10.582 C7.732,9.851 6.926,8.579 6.926,7.130 C6.926,6.875 6.952,6.626 7.000,6.384 L15.721,7.341 C15.617,9.252 14.112,10.817 12.144,11.162 L12.655,12.670 L15.519,12.824 L16.352,20.365 L17.550,24.417 L14.738,22.929 L14.165,21.185 L13.644,17.441 L12.603,21.390 L13.124,23.237 L23.487,29.136 L24.997,26.418 L28.799,28.469 L24.893,35.292 L21.091,33.291 ZM4.062,16.825 L2.500,18.261 L2.500,20.005 L4.218,20.416 L4.062,16.825 ZM6.306,5.320 C6.405,2.365 8.754,-0.000 11.639,-0.000 C14.587,-0.000 16.977,2.469 16.977,5.514 C16.977,5.831 16.950,6.140 16.901,6.442 L6.306,5.320 ZM39.475,36.471 L41.973,40.000 L34.278,40.000 L37.287,36.471 L39.475,36.471 Z" class="cls-1"/>
</svg>
