<svg xmlns="http://www.w3.org/2000/svg" xmlns:xlink="http://www.w3.org/1999/xlink" preserveAspectRatio="xMidYMid" width="47" height="36" viewBox="0 0 47 36">
  <defs>
    <style>
      .cls-1 {
        fill: #fff;
        fill-rule: evenodd;
      }
    </style>
  </defs>
  <path d="M45.312,29.844 L41.062,29.844 C40.130,29.844 39.375,29.088 39.375,28.156 C39.375,27.224 40.130,26.469 41.062,26.469 L45.312,26.469 C46.244,26.469 47.000,27.224 47.000,28.156 C47.000,29.088 46.244,29.844 45.312,29.844 ZM40.502,24.820 C38.810,24.871 38.666,25.514 38.483,25.623 C34.944,21.300 31.059,22.469 30.214,22.586 C30.025,21.205 30.214,19.846 30.214,19.846 L30.214,16.048 L30.214,15.780 L30.214,10.698 L42.564,10.698 L46.134,16.048 L46.134,19.846 L46.134,24.820 L43.535,24.820 C42.654,24.820 41.612,24.820 40.502,24.820 ZM43.535,16.048 L41.749,13.159 L36.769,13.159 L36.766,16.048 L36.766,19.846 L43.535,19.846 L43.535,16.048 ZM28.536,8.987 L28.536,10.698 L28.536,14.015 L28.536,22.948 C26.630,23.366 24.931,25.960 24.335,28.137 C22.586,28.137 20.436,28.137 18.172,28.137 C16.864,24.199 11.679,21.254 2.382,18.889 C2.382,16.221 2.382,14.015 2.382,14.015 L-0.000,14.015 L-0.000,10.698 L24.547,10.698 L26.911,5.777 L45.484,5.777 C45.484,5.777 44.293,7.566 43.347,8.987 L28.536,8.987 ZM9.909,9.024 L9.909,9.040 L2.816,9.040 L5.642,6.526 L7.618,6.526 L8.718,5.263 L8.718,5.242 L8.735,5.242 L9.713,4.119 L12.559,4.119 L16.021,-0.000 L19.414,-0.000 L21.157,3.263 L23.961,3.263 L24.854,5.349 L24.862,5.349 L23.072,9.024 L9.909,9.024 ZM10.261,24.606 C13.446,24.606 16.028,27.157 16.028,30.303 C16.028,33.449 13.446,36.000 10.261,36.000 C7.076,36.000 4.494,33.449 4.494,30.303 C4.494,27.157 7.076,24.606 10.261,24.606 ZM10.342,31.881 C11.329,31.881 12.129,31.091 12.129,30.116 C12.129,29.141 11.329,28.351 10.342,28.351 C9.355,28.351 8.555,29.141 8.555,30.116 C8.555,31.091 9.355,31.881 10.342,31.881 ZM32.078,24.594 C35.262,24.594 37.844,27.147 37.844,30.297 C37.844,33.447 35.262,36.000 32.078,36.000 C28.894,36.000 26.312,33.447 26.312,30.297 C26.312,27.147 28.894,24.594 32.078,24.594 ZM32.156,32.000 C33.123,32.000 33.906,31.231 33.906,30.281 C33.906,29.332 33.123,28.562 32.156,28.562 C31.190,28.562 30.406,29.332 30.406,30.281 C30.406,31.231 31.190,32.000 32.156,32.000 Z" class="cls-1"/>
</svg>
